<svg width="77" height="77" viewBox="0 0 77 77" fill="none" xmlns="http://www.w3.org/2000/svg">
<g clip-path="url(#clip0_2_53)">
<path d="M38.5 7.45161C40.5577 7.45161 42.2258 5.78351 42.2258 3.72581C42.2258 1.6681 40.5577 0 38.5 0C36.4423 0 34.7742 1.6681 34.7742 3.72581C34.7742 5.78351 36.4423 7.45161 38.5 7.45161Z" fill="#383A39"/>
<path d="M38.5 77C40.5577 77 42.2258 75.3319 42.2258 73.2742C42.2258 71.2165 40.5577 69.5484 38.5 69.5484C36.4423 69.5484 34.7742 71.2165 34.7742 73.2742C34.7742 75.3319 36.4423 77 38.5 77Z" fill="#ECEEEE"/>
<path d="M21.1128 12.0468C23.1705 12.0468 24.8386 10.3787 24.8386 8.32097C24.8386 6.26326 23.1705 4.59516 21.1128 4.59516C19.0551 4.59516 17.387 6.26326 17.387 8.32097C17.387 10.3787 19.0551 12.0468 21.1128 12.0468Z" fill="#77807F"/>
<path d="M59.1163 66.8161C60.1099 68.5548 59.4889 70.7903 57.7502 71.9081C56.0115 72.9016 53.776 72.2806 52.6583 70.5419C51.6647 68.8032 52.2857 66.5677 54.0244 65.45C55.7631 64.4565 58.1228 65.0774 59.1163 66.8161Z" fill="#F2F4F4"/>
<path d="M10.1838 17.8839C11.9225 18.8774 12.5435 21.1129 11.5499 22.9758C10.5564 24.7145 8.32088 25.3355 6.45797 24.3419C4.71926 23.3484 4.0983 21.1129 5.09185 19.25C6.08539 17.3871 8.44507 16.8903 10.1838 17.8839Z" fill="#9FAAA9"/>
<path d="M70.5419 52.6581C72.2807 53.6516 72.9016 55.8871 71.9081 57.75C70.9145 59.4887 68.679 60.1097 66.8161 59.1161C65.0774 58.1226 64.4565 55.8871 65.45 54.0242C66.4436 52.2855 68.679 51.6645 70.5419 52.6581Z" fill="#F2F7F7"/>
<path d="M3.72581 42.2258C5.78351 42.2258 7.45161 40.5577 7.45161 38.5C7.45161 36.4423 5.78351 34.7742 3.72581 34.7742C1.6681 34.7742 0 36.4423 0 38.5C0 40.5577 1.6681 42.2258 3.72581 42.2258Z" fill="#B2BBBA"/>
<path d="M73.2744 42.2258C75.3321 42.2258 77.0002 40.5577 77.0002 38.5C77.0002 36.4423 75.3321 34.7742 73.2744 34.7742C71.2167 34.7742 69.5486 36.4423 69.5486 38.5C69.5486 40.5577 71.2167 42.2258 73.2744 42.2258Z" fill="white"/>
<path d="M6.45796 52.6581C8.19667 51.6645 10.4322 52.2855 11.5499 54.0242C12.5434 55.7629 11.9225 57.9984 10.1838 59.1161C8.44506 60.1097 6.20958 59.4887 5.09184 57.75C3.97409 56.0113 4.71925 53.7758 6.45796 52.6581Z" fill="#C5CCCB"/>
<path d="M66.8161 17.8839C68.5548 16.8903 70.7903 17.5113 71.9081 19.25C72.9016 20.9887 72.2807 23.2242 70.5419 24.3419C68.8032 25.3355 66.5677 24.7145 65.45 22.9758C64.4565 21.2371 65.0774 18.8774 66.8161 17.8839Z" fill="black"/>
<path d="M17.8838 66.8161C18.8774 65.0774 21.1129 64.4565 22.9758 65.45C24.7145 66.4435 25.3354 68.679 24.3419 70.5419C23.3483 72.2806 21.1129 72.9016 19.25 71.9081C17.5113 70.7903 16.8903 68.5548 17.8838 66.8161Z" fill="#D9DDDD"/>
<path d="M52.6583 6.45807C53.6518 4.71936 55.8873 4.09839 57.7502 5.09194C59.4889 6.08548 60.1099 8.32097 59.1163 10.1839C58.1228 11.9226 55.8873 12.5435 54.0244 11.55C52.2857 10.5565 51.6647 8.32097 52.6583 6.45807Z" fill="#111111"/>
</g>
<defs>
<clipPath id="clip0_2_53">
<rect width="77" height="77" fill="white"/>
</clipPath>
</defs>
</svg>